<svg id="visual" viewBox="0 0 960 540" width="960" height="540" xmlns="http://www.w3.org/2000/svg" xmlns:xlink="http://www.w3.org/1999/xlink" version="1.1"><rect x="0" y="0" width="960" height="540" fill="#457B9D"></rect><defs><linearGradient id="grad1_0" x1="43.8%" y1="0%" x2="100%" y2="100%"><stop offset="14.444444444444446%" stop-color="#457b9d" stop-opacity="1"></stop><stop offset="85.55555555555554%" stop-color="#457b9d" stop-opacity="1"></stop></linearGradient></defs><defs><linearGradient id="grad2_0" x1="0%" y1="0%" x2="56.3%" y2="100%"><stop offset="14.444444444444446%" stop-color="#457b9d" stop-opacity="1"></stop><stop offset="85.55555555555554%" stop-color="#457b9d" stop-opacity="1"></stop></linearGradient></defs><g transform="translate(960, 0)"><path d="M0 351C-33.9 336.8 -67.8 322.7 -101 311C-134.3 299.3 -167 290.1 -199.3 274.3C-231.5 258.4 -263.3 235.8 -284 206.3C-304.6 176.9 -314.1 140.6 -323.4 105.1C-332.7 69.5 -341.8 34.8 -351 0L0 0Z" fill="#1D3557"></path></g><g transform="translate(0, 540)"><path d="M0 -351C31.5 -331.4 63 -311.9 98.3 -302.4C133.5 -293 172.4 -293.7 201.6 -277.5C230.8 -261.3 250.3 -228.2 272.6 -198.1C295 -168 320.3 -141 333.8 -108.5C347.4 -76 349.2 -38 351 0L0 0Z" fill="#1D3557"></path></g></svg>